:SAMPLES-PER-SECOND 30
:FULLY-SPECIFIED
:DEGREES
228
root  0.132939 19.5063 -15.9264 47.6769 1.09123 3.88215
RightUpLeg  -41.0109 -8.44167 4.2223
RightLeg  106.678 16.8808 -3.50841
RightFoot  -21.2288 0.312237 3.48893
RightToes  5.82077e-011 -3.18055e-015 -2.98177e-016
Spine  49.0411 -0.149534 2.17968
Spine1  -14.5292 0.568559 -1.51945
HEad  -26.9641 -13.751 -0.346383
LeftShoulder1  -3.88251e-019 9.70628e-020 -3.87848e-018
LeftArm  -0.247147 -24.9316 -77.3143
LeftForeArm  21.9693 -7.11065 -6.89841
LeftHand  -12.4895 -12.2608 72.8846
RightShoulder  3.39649 8.2708 16.4618
RightArm  -5.53874 23.696 47.9478
RightForeArm  4.34188 30.2845 -16.5362
RightHand  -5.84762 7.56491 -48.8893
LeftUpLeg  -51.0615 -2.83884 -11.6608
LeftLeg  117.223 -21.618 14.4556
LeftFoot  -28.2987 0.0954635 1.31478
LeftToes  9.37148e-011 4.50685e-012 -4.11107e-011
229
root  0.156794 19.5078 -15.3285 45.8325 -1.39347 4.66889
RightUpLeg  -37.4846 -7.47602 0.614225
RightLeg  105.612 16.4017 -2.18712
RightFoot  -21.4719 0.373889 4.22704
RightToes  5.82077e-011 -3.18055e-015 -2.98177e-016
Spine  50.2899 0.277443 1.13917
Spine1  -13.4398 0.730624 -4.1124
HEad  -26.7047 -14.7234 -0.542754
LeftShoulder1  -3.88251e-019 9.70628e-020 -3.87848e-018
LeftArm  0.267341 -24.9231 -77.8517
LeftForeArm  22.9099 -6.93005 -7.41779
LeftHand  -12.7066 -12.3098 73.6786
RightShoulder  3.46529 8.47517 16.5654
RightArm  -6.11085 29.4997 48.6223
RightForeArm  -1.10221 23.4471 -12.7025
RightHand  -4.76134 6.14105 -45.1706
LeftUpLeg  -53.1315 -2.85147 -14.4606
LeftLeg  120.347 -22.4301 14.1473
LeftFoot  -32.212 0.178496 1.5858
LeftToes  9.37148e-011 4.50685e-012 -4.11107e-011
230
root  0.187886 19.5164 -14.7008 44.041 -3.37111 5.39547
RightUpLeg  -33.8369 -6.69831 -2.39469
RightLeg  103.965 16.0943 -1.27753
RightFoot  -21.3329 0.386279 4.47739
RightToes  5.82077e-011 -3.18055e-015 -2.98177e-016
Spine  51.3131 0.333882 0.489552
Spine1  -12.2067 0.69807 -6.57964
HEad  -26.6957 -15.4025 -0.433739
LeftShoulder1  -3.88251e-019 9.70628e-020 -3.87848e-018
LeftArm  0.288405 -24.737 -77.8148
LeftForeArm  24.0659 -6.83334 -7.80023
LeftHand  -13.0431 -12.3972 74.8536
RightShoulder  3.49222 8.66045 16.4355
RightArm  -4.44546 32.4929 50.3648
RightForeArm  -6.88439 17.913 -10.658
RightHand  -4.04891 4.64243 -44.2563
LeftUpLeg  -55.0239 -3.26152 -16.5805
LeftLeg  122.267 -22.9862 14.0227
LeftFoot  -34.9939 -0.00492871 0.497002
LeftToes  9.37148e-011 4.50685e-012 -4.11107e-011
231
root  0.198541 19.5124 -14.04 42.4041 -4.64344 5.5343
RightUpLeg  -30.2115 -5.84093 -4.08356
RightLeg  101.932 15.948 -0.787471
RightFoot  -21.3185 0.459344 5.51536
RightToes  5.82077e-011 -3.18055e-015 -2.98177e-016
Spine  52.0262 0.262082 0.351637
Spine1  -10.8719 0.767079 -8.3364
HEad  -27.1427 -15.6919 -0.0547739
LeftShoulder1  -3.88251e-019 9.70628e-020 -3.87848e-018
LeftArm  0.257522 -23.7374 -77.6164
LeftForeArm  24.9602 -7.11697 -7.95381
LeftHand  -13.2554 -12.3985 75.7527
RightShoulder  3.41823 8.70121 15.9065
RightArm  -1.198 33.6377 53.1265
RightForeArm  -8.28727 12.9438 -9.8896
RightHand  -4.21833 4.06149 -48.254
LeftUpLeg  -56.5879 -3.66565 -17.2093
LeftLeg  123.641 -22.955 13.3667
LeftFoot  -36.286 -0.378872 -1.38826
LeftToes  9.37148e-011 4.50685e-012 -4.11107e-011
232
root  0.208257 19.458 -13.3602 41.4554 -5.93266 5.03565
RightUpLeg  -27.4955 -4.5527 -4.93743
RightLeg  99.8805 15.9275 -0.735013
RightFoot  -21.0992 0.540077 6.86243
RightToes  5.82077e-011 -3.18055e-015 -2.98177e-016
Spine  51.8594 0.246434 0.360976
Spine1  -9.42569 0.968451 -9.64767
HEad  -27.659 -15.3584 0.539963
LeftShoulder1  -3.88251e-019 9.70628e-020 -3.87848e-018
LeftArm  0.298814 -22.6686 -76.504
LeftForeArm  25.4131 -7.50271 -8.24685
LeftHand  -13.3605 -12.3616 76.3132
RightShoulder  3.31176 8.63551 15.3405
RightArm  0.430448 33.3884 55.5798
RightForeArm  -5.97305 10.3791 -9.53674
RightHand  -5.01393 4.36574 -54.6552
LeftUpLeg  -57.7257 -3.39206 -17.0844
LeftLeg  124.589 -22.8541 12.8453
LeftFoot  -33.6515 0.0256244 0.743338
LeftToes  9.37148e-011 4.50685e-012 -4.11107e-011
233
root  0.211487 19.3578 -12.6693 41.0337 -7.46874 3.69455
RightUpLeg  -25.5708 -2.70865 -4.96115
RightLeg  97.78 16.0234 -1.34359
RightFoot  -20.4237 0.613795 8.71286
RightToes  5.82077e-011 -3.18055e-015 -2.98177e-016
Spine  51.1281 0.31887 0.362546
Spine1  -8.15265 1.30643 -10.7039
HEad  -27.7045 -14.1281 1.02728
LeftShoulder1  -3.88251e-019 9.70628e-020 -3.87848e-018
LeftArm  0.11608 -21.2071 -74.5163
LeftForeArm  25.7158 -7.79665 -8.6469
LeftHand  -13.6051 -12.4017 77.2019
RightShoulder  3.23313 8.55719 14.9646
RightArm  0.455898 31.6618 57.3829
RightForeArm  -4.89771 11.4376 -9.59811
RightHand  -5.92956 5.13124 -59.1775
LeftUpLeg  -57.9279 -1.98902 -16.1117
LeftLeg  125.914 -21.8221 11.0831
LeftFoot  -28.7612 0.411642 3.48005
LeftToes  9.37148e-011 4.50685e-012 -4.11107e-011
234
root  0.225384 19.2055 -11.9419 41.5239 -8.82016 2.08902
RightUpLeg  -24.415 -1.19718 -4.49845
RightLeg  95.454 16.1425 -2.48273
RightFoot  -19.7583 0.667915 10.5602
RightToes  5.82077e-011 -3.18055e-015 -2.98177e-016
Spine  49.5047 0.225056 0.374817
Spine1  -7.04878 1.49441 -11.4704
HEad  -27.2367 -12.1961 1.02093
LeftShoulder1  -3.88251e-019 9.70628e-020 -3.87848e-018
LeftArm  -0.694447 -18.5794 -71.935
LeftForeArm  25.8522 -8.47105 -8.65623
LeftHand  -13.972 -12.4443 78.5704
RightShoulder  3.17206 8.50508 14.6563
RightArm  0.145712 29.2216 59.8107
RightForeArm  -5.09648 13.6537 -9.74092
RightHand  -6.69673 6.05677 -61.041
LeftUpLeg  -57.8217 -0.387426 -14.7617
LeftLeg  127.064 -20.0215 8.55211
LeftFoot  -24.4712 0.171025 2.2943
LeftToes  9.37148e-011 4.50685e-012 -4.11107e-011
235
root  0.261066 19.0315 -11.1343 43.1199 -9.48151 1.26502
RightUpLeg  -23.8442 -1.0351 -4.25879
RightLeg  92.593 16.1601 -3.7351
RightFoot  -19.5416 0.720621 11.8848
RightToes  5.82077e-011 -3.18055e-015 -2.98177e-016
Spine  46.8511 -0.361999 0.510282
Spine1  -5.99149 1.15833 -12.0147
HEad  -26.6395 -10.1646 0.718258
LeftShoulder1  -3.88251e-019 9.70628e-020 -3.87848e-018
LeftArm  -1.61258 -14.7506 -69.6315
LeftForeArm  25.5155 -9.60624 -8.20303
LeftHand  -14.1872 -12.3029 79.903
RightShoulder  3.10579 8.45397 14.3109
RightArm  0.509129 27.3577 63.6075
RightForeArm  -4.18441 13.6594 -9.72553
RightHand  -7.34435 6.75347 -62.7298
LeftUpLeg  -58.1805 0.173548 -14.2271
LeftLeg  126.531 -19.1409 7.63547
LeftFoot  -20.5949 -0.0682792 -0.122641
LeftToes  9.37148e-011 4.50685e-012 -4.11107e-011
236
root  0.283389 18.8896 -10.2758 45.3728 -9.68803 1.79628
RightUpLeg  -23.6207 -2.16535 -4.79067
RightLeg  89.1889 16.0173 -4.83402
RightFoot  -19.4482 0.762104 12.8322
RightToes  5.82077e-011 -3.18055e-015 -2.98177e-016
Spine  43.8248 -1.33318 0.404563
Spine1  -5.2013 0.177944 -12.2301
HEad  -26.1593 -8.31875 0.796976
LeftShoulder1  -3.88251e-019 9.70628e-020 -3.87848e-018
LeftArm  -2.2871 -10.8213 -68.0045
LeftForeArm  24.9366 -10.0773 -7.78649
LeftHand  -14.2631 -11.993 81.2355
RightShoulder  3.06325 8.41243 14.1015
RightArm  1.44746 26.1383 67.7417
RightForeArm  -2.11867 11.8758 -9.48084
RightHand  -8.01146 7.20993 -65.3286
LeftUpLeg  -58.8143 -0.41086 -15.2487
LeftLeg  123.99 -19.5745 8.87286
LeftFoot  -16.3077 -0.0610524 -0.467113
LeftToes  9.37148e-011 4.50685e-012 -4.11107e-011
237
root  0.239496 18.7947 -9.42795 47.9269 -9.82469 3.64878
RightUpLeg  -23.7635 -4.1276 -6.09279
RightLeg  85.6853 15.7595 -5.52938
RightFoot  -19.0762 0.751134 13.4479
RightToes  5.82077e-011 -3.18055e-015 -2.98177e-016
Spine  40.7364 -2.36237 -0.55523
Spine1  -4.75875 -1.36765 -11.4064
HEad  -25.8101 -6.33609 1.62516
LeftShoulder1  -3.88251e-019 9.70628e-020 -3.87848e-018
LeftArm  -3.42579 -7.5679 -66.8585
LeftForeArm  24.8883 -9.04326 -7.5815
LeftHand  -14.4064 -11.7267 82.7132
RightShoulder  3.11042 8.4763 14.3065
RightArm  2.39921 24.6277 70.7169
RightForeArm  -0.225588 11.3065 -9.02528
RightHand  -8.86846 7.89886 -67.9051
LeftUpLeg  -59.0904 -1.71054 -17.456
LeftLeg  120.279 -20.2164 10.9878
LeftFoot  -13.1275 -0.032777 -0.940698
LeftToes  9.37148e-011 4.50685e-012 -4.11107e-011
